#!OML:ASF F:\twosubjects\two\Thursday\Session 1\justin.ASF
:FULLY-SPECIFIED
:DEGREES
286
root 21.5339 18.5884 5.49486 -152.6 -86.3699 167.171
lowerback 10.3854 1.4098 0.629604
upperback 5.03954 1.73946 2.93507
thorax -0.650811 0.748337 2.49834
lowerneck -22.4159 -2.38462 -10.6824
upperneck 30.4974 -0.673779 2.49827
head 14.3101 -1.35846 2.67014
rclavicle 0 -7.95139e-015
rhumerus 19.3266 24.4551 -58.8758
rradius 71.9634
rwrist 24.1685
rhand -37.7294 42.4183
rfingers 7.12502
rthumb -10.7782 12.7148
lclavicle 0 -7.95139e-015
lhumerus 29.4791 -30.2125 54.52
lradius 60.6668
lwrist -42.8611
lhand -35.3587 51.8805
lfingers 7.12502
lthumb -8.49099 81.6898
rfemur -29.1407 -2.7101 15.3309
rtibia 25.035
rfoot -9.58817 -5.84769
rtoes -13.6224
lfemur -16.6044 10.7361 -23.5095
ltibia 11.7843
lfoot -7.23747 -0.142992
ltoes -9.75351
287
root 21.5272 18.5884 5.47626 -149.701 -86.2649 164.269
lowerback 10.5673 1.54636 0.391038
upperback 5.07269 1.89829 2.9984
thorax -0.731662 0.821726 2.67805
lowerneck -22.3086 -2.53482 -10.8543
upperneck 30.4562 -0.87052 2.58279
head 14.2883 -1.44842 2.69663
rclavicle 7.95139e-015 2.14687e-014
rhumerus 19.9461 25.0938 -56.9918
rradius 72.1175
rwrist 23.4126
rhand -38.615 41.1737
rfingers 7.12502
rthumb -11.6324 11.5166
lclavicle 7.95139e-015 2.14687e-014
lhumerus 29.815 -30.6113 53.9628
lradius 61.0657
lwrist -42.544
lhand -35.4579 54.9951
lfingers 7.12502
lthumb -8.58673 84.8005
rfemur -29.1787 -2.5779 15.107
rtibia 25.158
rfoot -9.70658 -5.96801
rtoes -12.8677
lfemur -16.2728 10.6714 -23.6644
ltibia 11.2018
lfoot -6.99484 -0.145894
ltoes -10.1123
288
root 21.5261 18.5868 5.47377 -142.932 -86.1818 157.585
lowerback 10.7035 1.46147 0.241348
upperback 5.06827 1.77476 2.88405
thorax -0.806191 0.760345 2.65473
lowerneck -22.4649 -2.51341 -11.0377
upperneck 30.6816 -0.808102 2.74514
head 14.4185 -1.43078 2.81023
rclavicle -1.59028e-015 1.11319e-014
rhumerus 20.6625 25.532 -55.8309
rradius 71.9968
rwrist 23.7032
rhand -38.4957 41.1032
rfingers 7.12502
rthumb -11.5174 11.4396
lclavicle -1.59028e-015 1.11319e-014
lhumerus 29.8174 -30.2215 53.5426
lradius 60.663
lwrist -44.0454
lhand -36.6355 53.1104
lfingers 7.12502
lthumb -9.723 82.8659
rfemur -29.3119 -2.36127 14.5289
rtibia 25.2656
rfoot -9.88815 -6.24122
rtoes -13.1311
lfemur -16.0989 10.2835 -24.104
ltibia 10.6513
lfoot -6.69908 -0.0443609
ltoes -10.6486
289
root 21.5157 18.5908 5.44978 -141.058 -86.0733 155.671
lowerback 10.8548 1.44844 0.0781111
upperback 5.15988 1.73614 2.81782
thorax -0.794432 0.736738 2.68075
lowerneck -22.6123 -2.49808 -10.9804
upperneck 30.8161 -0.860425 2.94981
head 14.5121 -1.42158 2.87898
rclavicle -7.95139e-015 -1.51076e-014
rhumerus 21.1889 25.8361 -55.1848
rradius 71.7471
rwrist 24.8282
rhand -37.8317 41.7196
rfingers 7.12502
rthumb -10.877 12.0212
lclavicle -7.95139e-015 -1.51076e-014
lhumerus 30.1853 -30.8524 52.4157
lradius 61.5795
lwrist -41.8985
lhand -35.1013 55.2964
lfingers 7.12502
lthumb -8.2425 85.1156
rfemur -29.2079 -1.41909 14.1597
rtibia 25.3743
rfoot -10.1338 -7.04621
rtoes -13.9938
lfemur -15.9057 10.1046 -24.1655
ltibia 10.4561
lfoot -6.57465 0.120892
ltoes -11.3678
290
root 21.5002 18.5905 5.41441 -142.851 -86.0806 157.388
lowerback 10.9596 1.59467 0.0332234
upperback 5.30348 1.91386 2.8678
thorax -0.7132 0.81856 2.7375
lowerneck -22.6487 -2.70694 -10.9552
upperneck 30.6971 -1.23667 3.16622
head 14.4997 -1.5382 2.89266
rclavicle 1.59028e-015 3.97569e-015
rhumerus 21.3697 25.8901 -54.541
rradius 71.6611
rwrist 25.8286
rhand -38.0944 42.6315
rfingers 7.12502
rthumb -11.1303 12.9467
lclavicle 1.59028e-015 3.97569e-015
lhumerus 30.7817 -30.7723 52.1157
lradius 61.1765
lwrist -42.7438
lhand -35.497 55.3345
lfingers 7.12502
lthumb -8.62445 85.1383
rfemur -29.0793 -1.23457 14.3729
rtibia 25.43
rfoot -10.1839 -7.14163
rtoes -15.2833
lfemur -15.8615 9.89779 -23.8484
ltibia 10.6992
lfoot -6.68261 0.364523
ltoes -11.8559
291
root 21.4895 18.5864 5.39274 -146.875 -86.1489 161.573
lowerback 10.81 1.63573 0.227126
upperback 5.38423 1.97755 2.97865
thorax -0.547895 0.848345 2.74057
lowerneck -22.6933 -2.74688 -11.1263
upperneck 30.6358 -1.31571 3.45712
head 14.4915 -1.54557 3.027
rclavicle 1.98785e-014 1.59028e-014
rhumerus 22.059 26.112 -53.5528
rradius 71.4159
rwrist 25.9167
rhand -38.5361 42.872
rfingers 7.12502
rthumb -11.5563 13.2106
lclavicle 1.98785e-014 1.59028e-014
lhumerus 31.2711 -30.8325 51.7813
lradius 61.2707
lwrist -42.6392
lhand -33.8652 54.3377
lfingers 7.12502
lthumb -7.04944 84.2003
rfemur -29.3069 -2.26992 15.0891
rtibia 25.4414
rfoot -10.1985 -5.97216
rtoes -15.6105
lfemur -16.2472 9.63632 -23.4116
ltibia 11.2524
lfoot -6.91071 0.735519
ltoes -11.4817
292
root 21.4864 18.5859 5.38456 -154.568 -86.262 169.637
lowerback 10.5553 1.53298 0.76696
upperback 5.39681 1.88323 3.14153
thorax -0.379 0.806022 2.62182
lowerneck -22.7505 -2.59594 -11.2326
upperneck 30.623 -1.11533 3.66757
head 14.4792 -1.4418 3.17025
rclavicle -7.15625e-015 -1.03368e-014
rhumerus 23.1639 26.7257 -52.1932
rradius 71.3988
rwrist 25.363
rhand -38.5251 41.1972
rfingers 7.12502
rthumb -11.5457 11.5352
lclavicle -7.15625e-015 -1.03368e-014
lhumerus 31.366 -30.9252 51.275
lradius 62.104
lwrist -40.1639
lhand -33.6419 60.0937
lfingers 7.12502
lthumb -6.83386 89.9634
rfemur -29.7514 -3.04072 16.0129
rtibia 25.4409
rfoot -10.1433 -5.23238
rtoes -14.3388
lfemur -16.9626 9.59811 -22.8411
ltibia 11.9237
lfoot -7.20543 1.13703
ltoes -10.1341
293
root 21.4828 18.584 5.3703 -159.766 -86.3261 175.086
lowerback 10.553 1.53993 1.28521
upperback 5.35254 1.93959 3.17358
thorax -0.409003 0.842341 2.35674
lowerneck -22.641 -2.56521 -11.1347
upperneck 30.5467 -1.14311 3.72644
head 14.4216 -1.43034 3.17101
rclavicle 7.95139e-016 1.98785e-014
rhumerus 23.4925 27.1749 -51.3313
rradius 71.7982
rwrist 24.7442
rhand -38.6036 39.8422
rfingers 7.12502
rthumb -11.6214 10.1845
lclavicle 7.95139e-016 1.98785e-014
lhumerus 31.4461 -31.0283 50.8191
lradius 61.8641
lwrist -40.5579
lhand -34.1148 55.6641
lfingers 7.12502
lthumb -7.29042 85.5185
rfemur -30.0274 -3.20147 16.5538
rtibia 25.4687
rfoot -10.0617 -5.20393
rtoes -13.588
lfemur -17.4747 9.7622 -22.4755
ltibia 12.4091
lfoot -7.45207 1.23214
ltoes -9.99999
294
root 21.4741 18.5846 5.34496 -161.093 -86.377 176.474
lowerback 10.6861 1.56123 1.5158
upperback 5.3092 1.99488 3.07673
thorax -0.51674 0.875692 2.11689
lowerneck -22.4165 -2.53119 -10.918
upperneck 30.4929 -1.23519 3.79245
head 14.3531 -1.43379 3.14263
rclavicle 4.77083e-015 -6.36111e-015
rhumerus 23.6061 27.4066 -50.8947
rradius 72.0791
rwrist 24.6711
rhand -38.5825 39.8232
rfingers 7.12502
rthumb -11.6011 10.1643
lclavicle 4.77083e-015 -6.36111e-015
lhumerus 31.6081 -30.914 50.6588
lradius 61.4853
lwrist -40.8442
lhand -35.5931 57.0897
lfingers 7.12502
lthumb -8.71712 86.8897
rfemur -30.108 -3.06368 16.6716
rtibia 25.57
rfoot -10.3176 -5.13008
rtoes -13.3534
lfemur -17.6023 9.80655 -22.2856
ltibia 12.5988
lfoot -7.46551 1.15935
ltoes -12.2108
295
root 21.4595 18.5879 5.30559 -156.053 -86.5853 171.287
lowerback 10.8399 1.51499 1.22154
upperback 5.37488 1.90663 2.97707
thorax -0.536714 0.827509 2.18623
lowerneck -22.2721 -2.58488 -10.8759
upperneck 30.5011 -1.43552 4.02729
head 14.3429 -1.48222 3.19551
rclavicle -1.98785e-014 -1.59028e-014
rhumerus 23.9111 27.4896 -50.3066
rradius 72.4459
rwrist 24.7329
rhand -38.5556 39.422
rfingers 7.12502
rthumb -11.5751 9.76162
lclavicle -1.98785e-014 -1.59028e-014
lhumerus 31.8982 -31.0718 50.3437
lradius 61.5457
lwrist -39.7743
lhand -35.5307 60.0481
lfingers 7.12502
lthumb -8.6569 89.8506
rfemur -29.9353 -2.88696 16.3404
rtibia 25.7454
rfoot -10.709 -5.2422
rtoes -12.3047
lfemur -17.4123 9.62942 -22.3799
ltibia 12.6234
lfoot -7.4829 1.03873
ltoes -11.9873
296
root 21.4429 18.5797 5.26692 -145.639 -86.7134 160.7
lowerback 10.9647 1.4864 0.677194
upperback 5.47775 1.81497 2.87001
thorax -0.509275 0.773074 2.39057
lowerneck -22.2213 -2.73802 -11.14
upperneck 30.5029 -1.72232 4.48546
head 14.3663 -1.57018 3.37762
rclavicle -2.38542e-015 -1.90833e-014
rhumerus 24.1317 27.6877 -49.6933
rradius 72.9771
rwrist 24.099
rhand -39.8163 37.9841
rfingers 7.12502
rthumb -12.7907 8.39589
lclavicle -2.38542e-015 -1.90833e-014
lhumerus 32.1468 -31.2577 50.0659
lradius 61.7762
lwrist -38.5759
lhand -35.4388 60.9715
lfingers 7.12502
lthumb -8.56826 269.222
rfemur -29.7053 -3.09308 15.8707
rtibia 25.9675
rfoot -10.7764 -5.5567
rtoes -12.7971
lfemur -17.1466 9.52113 -22.8259
ltibia 12.5167
lfoot -7.63774 0.864548
ltoes -10.9199
297
root 21.4359 18.5682 5.25324 -142.859 -86.8576 158.1
lowerback 10.8874 1.42602 0.807684
upperback 5.43831 1.75042 2.77934
thorax -0.49926 0.746534 2.23103
lowerneck -22.0741 -2.71718 -11.1531
upperneck 30.3923 -1.82893 4.85194
head 14.2964 -1.56153 3.50919
rclavicle -1.27222e-014 -2.8625e-014
rhumerus 24.3076 27.775 -49.6139
rradius 73.1861
rwrist 24.1477
rhand -41.9438 38.603
rfingers 7.12502
rthumb -14.841 9.15454
lclavicle -1.27222e-014 -2.8625e-014
lhumerus 32.2 -31.1973 50.0204
lradius 61.8183
lwrist -37.9892
lhand -35.653 60.4792
lfingers 7.12502
lthumb -8.77491 269.723
rfemur -29.9524 -3.51192 15.9808
rtibia 26.2256
rfoot -10.6228 -5.7742
rtoes -13.439
lfemur -17.2382 9.43677 -22.9072
ltibia 12.3093
lfoot -7.57291 0.778126
ltoes -12.672
298
root 21.4311 18.566 5.23888 -142.66 -87.1309 158.171
lowerback 10.7358 1.32331 1.08021
upperback 5.3966 1.64094 2.78367
thorax -0.448598 0.69814 2.09653
lowerneck -21.9537 -2.60793 -10.8215
upperneck 30.2874 -1.76125 4.71076
head 14.2096 -1.51039 3.40329
rclavicle -1.03368e-014 -7.95139e-015
rhumerus 24.5445 27.5934 -49.6222
rradius 73.2496
rwrist 25.1192
rhand -42.2703 40.964
rfingers 7.12502
rthumb -15.1556 11.539
lclavicle -1.03368e-014 -7.95139e-015
lhumerus 32.2798 -31.0335 50.1415
lradius 61.8766
lwrist -37.1077
lhand -35.6531 60.8886
lfingers 7.12502
lthumb -8.77505 269.314
rfemur -30.3619 -3.7961 16.2273
rtibia 26.5109
rfoot -10.6321 -5.80941
rtoes -12.9867
lfemur -17.3902 9.27703 -22.7381
ltibia 12.0172
lfoot -7.29674 0.640319
ltoes -13.6783
299
root 21.4206 18.5653 5.20917 -138.542 -87.3316 154.063
lowerback 10.7696 1.24564 0.956138
upperback 5.47716 1.52105 2.88778
thorax -0.385497 0.632173 2.28817
lowerneck -21.9223 -2.61377 -10.7758
upperneck 30.1679 -1.70758 4.4875
head 14.1442 -1.50835 3.30994
rclavicle -7.95139e-015 -2.22639e-014
rhumerus 25.2443 27.731 -48.7619
rradius 73.2915
rwrist 25.1694
rhand -41.1023 38.8023
rfingers 7.12502
rthumb -14.0302 9.29584
lclavicle -7.95139e-015 -2.22639e-014
lhumerus 32.4307 -30.9695 50.3211
lradius 62.3742
lwrist -35.3504
lhand -34.8036 62.0788
lfingers 7.12502
lthumb -7.95517 268.091
rfemur -30.4139 -3.88511 16.1844
rtibia 26.7433
rfoot -10.9537 -5.83551
rtoes -12.6557
lfemur -17.1782 9.08687 -22.6863
ltibia 11.621
lfoot -7.03735 0.512617
ltoes -13.653
300
root 21.4084 18.5692 5.17805 -129.019 -87.5527 144.384
lowerback 10.901 1.18508 0.771924
upperback 5.56807 1.41986 2.90589
thorax -0.363942 0.575716 2.42107
lowerneck -21.82 -2.72781 -11.0894
upperneck 30.106 -1.8952 4.86968
head 14.1211 -1.56933 3.48489
rclavicle -3.18055e-015 -7.95139e-015
rhumerus 26.0132 27.9514 -47.6618
rradius 73.0955
rwrist 24.3665
rhand -40.6567 34.3552
rfingers 7.12502
rthumb -13.6008 4.81944
lclavicle -3.18055e-015 -7.95139e-015
lhumerus 32.4647 -30.5093 50.8591
lradius 61.9532
lwrist -35.7232
lhand -35.4995 60.0065
lfingers 7.12502
lthumb -8.62679 89.8102
rfemur -30.2267 -3.42565 15.7486
rtibia 26.9271
rfoot -11.5681 -6.38926
rtoes -10.9804
lfemur -16.7508 8.80233 -22.7748
ltibia 11.1005
lfoot -6.84515 0.404618
ltoes -12.5728
